<svg width="28" height="28" viewBox="0 0 28 28" fill="none" xmlns="http://www.w3.org/2000/svg">
<g id="call">
<g id="vector">
<path d="M22.6623 23.8585C20.4067 23.8585 18.166 23.3187 15.94 22.2392C13.7132 21.1604 11.7248 19.746 9.97481 17.996C8.2248 16.246 6.81042 14.2627 5.73164 12.046C4.65208 9.82933 4.1123 7.5835 4.1123 5.3085C4.1123 4.9585 4.22897 4.66683 4.4623 4.4335C4.69564 4.20016 4.9873 4.0835 5.3373 4.0835H9.12897C9.44008 4.0835 9.70725 4.17566 9.93047 4.36C10.1545 4.54511 10.2956 4.7835 10.354 5.07516L11.0248 8.51683C11.0637 8.8085 11.054 9.071 10.9956 9.30433C10.9373 9.53766 10.8109 9.74183 10.6165 9.91683L7.93314 12.5418C8.86647 14.0974 9.96975 15.5071 11.243 16.771C12.517 18.0349 13.9609 19.1335 15.5748 20.0668L18.1706 17.4418C18.3651 17.2474 18.5938 17.1113 18.8566 17.0335C19.1188 16.9557 19.3859 16.9363 19.6581 16.9752L22.8956 17.646C23.1873 17.7043 23.4257 17.8404 23.6108 18.0543C23.7951 18.2682 23.8873 18.5307 23.8873 18.8418V22.6335C23.8873 22.9835 23.7706 23.2752 23.5373 23.5085C23.304 23.7418 23.0123 23.8585 22.6623 23.8585ZM7.11647 10.8793L9.1873 8.896C9.22619 8.85711 9.25069 8.81316 9.26081 8.76416C9.27014 8.71594 9.26508 8.67238 9.24564 8.6335L8.7498 6.0085C8.73036 5.95016 8.70119 5.90622 8.6623 5.87666C8.62342 5.84789 8.57481 5.8335 8.51647 5.8335H6.0373C5.97897 5.8335 5.93503 5.84789 5.90547 5.87666C5.87669 5.90622 5.8623 5.94044 5.8623 5.97933C5.92064 6.77655 6.05208 7.58816 6.25664 8.41416C6.46042 9.24094 6.74703 10.0627 7.11647 10.8793ZM21.9915 22.0502C22.0304 22.0502 22.0646 22.0354 22.0941 22.0058C22.1229 21.9771 22.1373 21.9432 22.1373 21.9043V19.4543C22.1373 19.396 22.1229 19.3474 22.0941 19.3085C22.0646 19.2696 22.0206 19.2404 21.9623 19.221L19.5123 18.7252C19.4734 18.7057 19.4345 18.7057 19.3956 18.7252L19.279 18.7835L17.2081 20.8835C17.9859 21.2529 18.7929 21.5349 19.629 21.7293C20.4651 21.9238 21.2526 22.0307 21.9915 22.0502Z" fill="#2A2D34"/>
</g>
</g>
</svg>
