<svg width="14" height="11" viewBox="0 0 14 11" fill="none" xmlns="http://www.w3.org/2000/svg">
<path d="M13.3327 1.7V9.3C13.3327 9.63333 13.216 9.91667 12.9827 10.15C12.7493 10.3833 12.466 10.5 12.1327 10.5H1.86602C1.53268 10.5 1.24935 10.3833 1.01602 10.15C0.782682 9.91667 0.666016 9.63333 0.666016 9.3V1.7C0.666016 1.36667 0.782682 1.08333 1.01602 0.85C1.24935 0.616667 1.53268 0.5 1.86602 0.5H12.1327C12.466 0.5 12.7493 0.616667 12.9827 0.85C13.216 1.08333 13.3327 1.36667 13.3327 1.7ZM1.66602 3.1H12.3327V1.7C12.3327 1.65556 12.3105 1.61111 12.266 1.56667C12.2216 1.52222 12.1771 1.5 12.1327 1.5H1.86602C1.82157 1.5 1.77713 1.52222 1.73268 1.56667C1.68824 1.61111 1.66602 1.65556 1.66602 1.7V3.1ZM1.66602 5.23333V9.3C1.66602 9.34445 1.68824 9.38889 1.73268 9.43333C1.77713 9.47778 1.82157 9.5 1.86602 9.5H12.1327C12.1771 9.5 12.2216 9.47778 12.266 9.43333C12.3105 9.38889 12.3327 9.34445 12.3327 9.3V5.23333H1.66602Z" fill="black"/>
</svg>
