<svg width="152" height="24" viewBox="0 0 152 24" fill="none" xmlns="http://www.w3.org/2000/svg">
<rect x="0.5" y="0.5" width="34" height="23" rx="3.5" fill="#1F72CD" stroke="#D9D9D9"/>
<path fill-rule="evenodd" clip-rule="evenodd" d="M6.68111 8.5L3.5 15.7467H7.30824L7.78035 14.5913H8.85949L9.3316 15.7467H13.5234V14.8649L13.8969 15.7467H16.0652L16.4387 14.8462V15.7467H25.1566L26.2166 14.6213L27.2092 15.7467L31.6868 15.7561L28.4957 12.1436L31.6868 8.5H27.2786L26.2467 9.60463L25.2854 8.5H15.8016L14.9872 10.3704L14.1537 8.5H10.3534V9.35186L9.93068 8.5H6.68111ZM19.6994 9.52905H24.7055L26.2367 11.2316L27.8172 9.52905H29.3484L27.0219 12.1426L29.3484 14.726H27.7477L26.2166 13.0036L24.628 14.726H19.6994V9.52905ZM20.9356 11.555V10.6057V10.6048H24.0593L25.4223 12.1229L23.9989 13.6493H20.9356V12.613H23.6667V11.555H20.9356ZM7.41799 9.52905H9.2743L11.3843 14.4431V9.52905H13.4178L15.0476 13.0524L16.5496 9.52905H18.573V14.7291H17.3418L17.3317 10.6544L15.5368 14.7291H14.4355L12.6305 10.6544V14.7291H10.0977L9.61756 13.5633H7.02338L6.54421 14.728H5.18717L7.41799 9.52905ZM7.46634 12.4856L8.32101 10.4089L9.1747 12.4856H7.46634Z" fill="white"/>
<rect x="39.5" y="0.5" width="34" height="23" rx="3.5" fill="white" stroke="#D9D9D9"/>
<path fill-rule="evenodd" clip-rule="evenodd" d="M56.75 17.1569C55.5584 18.1852 54.0128 18.806 52.3238 18.806C48.5551 18.806 45.5 15.7154 45.5 11.903C45.5 8.09057 48.5551 5 52.3238 5C54.0128 5 55.5584 5.62075 56.75 6.64903C57.9416 5.62075 59.4872 5 61.1762 5C64.9449 5 68 8.09057 68 11.903C68 15.7154 64.9449 18.806 61.1762 18.806C59.4872 18.806 57.9416 18.1852 56.75 17.1569Z" fill="#ED0006"/>
<path fill-rule="evenodd" clip-rule="evenodd" d="M56.75 17.1569C58.2172 15.8908 59.1475 14.0068 59.1475 11.903C59.1475 9.79917 58.2172 7.91517 56.75 6.64903C57.9416 5.62075 59.4872 5 61.1762 5C64.9449 5 68 8.09057 68 11.903C68 15.7154 64.9449 18.806 61.1762 18.806C59.4872 18.806 57.9416 18.1852 56.75 17.1569Z" fill="#F9A000"/>
<path fill-rule="evenodd" clip-rule="evenodd" d="M56.75 6.64844C58.2172 7.91457 59.1476 9.79856 59.1476 11.9024C59.1476 14.0062 58.2172 15.8902 56.75 17.1563C55.2829 15.8902 54.3525 14.0062 54.3525 11.9024C54.3525 9.79856 55.2829 7.91457 56.75 6.64844Z" fill="#FF5E00"/>
<rect x="78.5" y="0.5" width="34" height="23" rx="3.5" fill="white" stroke="#D9D9D9"/>
<path fill-rule="evenodd" clip-rule="evenodd" d="M88.6253 16.2582H86.5049L84.915 10.1924C84.8395 9.91334 84.6792 9.66667 84.4435 9.5504C83.8553 9.25823 83.2071 9.0257 82.5 8.90843V8.6749H85.9157C86.3871 8.6749 86.7406 9.0257 86.7996 9.43313L87.6245 13.8086L89.7438 8.6749H91.8052L88.6253 16.2582ZM92.9838 16.2582H90.9813L92.6302 8.6749H94.6327L92.9838 16.2582ZM97.2234 10.7757C97.2823 10.3673 97.6359 10.1337 98.0483 10.1337C98.6965 10.0751 99.4026 10.1924 99.9919 10.4835L100.345 8.85081C99.7562 8.61727 99.108 8.5 98.5198 8.5C96.5762 8.5 95.162 9.55041 95.162 11.0082C95.162 12.1173 96.1637 12.6996 96.8708 13.0504C97.6359 13.4002 97.9305 13.6338 97.8716 13.9835C97.8716 14.5082 97.2823 14.7418 96.6941 14.7418C95.9869 14.7418 95.2798 14.5669 94.6327 14.2747L94.2791 15.9085C94.9862 16.1996 95.7512 16.3169 96.4584 16.3169C98.6376 16.3745 99.9919 15.3251 99.9919 13.75C99.9919 11.7665 97.2234 11.6502 97.2234 10.7757ZM107 16.2582L105.41 8.6749H103.702C103.349 8.6749 102.995 8.90843 102.877 9.25823L99.9329 16.2582H101.994L102.406 15.1502H104.939L105.174 16.2582H107ZM103.997 10.7171L104.585 13.5751H102.936L103.997 10.7171Z" fill="#172B85"/>
<rect x="117.5" y="0.5" width="34" height="23" rx="3.5" fill="white" stroke="#D9D9D9"/>
<path d="M132 23L151 17.25V20C151 21.6569 149.657 23 148 23H132Z" fill="#FD6020"/>
<path fill-rule="evenodd" clip-rule="evenodd" d="M147.394 9.11084C148.439 9.11084 149.014 9.59438 149.014 10.5077C149.066 11.2062 148.596 11.7972 147.969 11.9046L149.38 13.8925H148.282L147.08 11.9584H146.976V13.8925H146.087V9.11084H147.394ZM146.976 11.3137H147.237C147.812 11.3137 148.073 11.045 148.073 10.5615C148.073 10.1317 147.812 9.86304 147.237 9.86304H146.976V11.3137ZM143.003 13.8925H145.512V13.0866H143.892V11.7972H145.46V10.9913H143.892V9.91674H145.512V9.11084H143.003V13.8925ZM140.39 12.3345L139.188 9.11084H138.247L140.181 14H140.652L142.585 9.11084H141.645L140.39 12.3345ZM129.78 11.5286C129.78 12.8717 130.826 14 132.132 14C132.551 14 132.916 13.8925 133.282 13.7314V12.6568C133.021 12.9792 132.655 13.1941 132.237 13.1941C131.401 13.1941 130.721 12.5494 130.721 11.6897V11.5823C130.669 10.7227 131.348 9.97048 132.185 9.91675C132.603 9.91675 133.021 10.1317 133.282 10.454V9.37948C132.969 9.16458 132.551 9.11085 132.185 9.11085C130.826 9.0034 129.78 10.1317 129.78 11.5286ZM128.16 10.9376C127.638 10.7227 127.481 10.6152 127.481 10.3466C127.533 10.0242 127.794 9.75557 128.108 9.8093C128.369 9.8093 128.631 9.97048 128.84 10.1854L129.31 9.54066C128.944 9.2183 128.474 9.00339 128.003 9.00339C127.272 8.94967 126.645 9.54066 126.592 10.2928V10.3466C126.592 10.9913 126.854 11.3674 127.69 11.636C127.899 11.6897 128.108 11.7972 128.317 11.9046C128.474 12.0121 128.578 12.1733 128.578 12.3882C128.578 12.7643 128.265 13.0866 127.951 13.0866H127.899C127.481 13.0866 127.115 12.818 126.958 12.4419L126.383 13.0329C126.697 13.6239 127.324 13.9463 127.951 13.9463C128.787 14 129.467 13.3553 129.519 12.4956V12.3345C129.467 11.6897 129.206 11.3674 128.16 10.9376ZM125.129 13.8925H126.017V9.11084H125.129V13.8925ZM121 9.11086H122.307H122.568C123.822 9.16458 124.815 10.2391 124.763 11.5286C124.763 12.227 124.449 12.8717 123.927 13.3553C123.456 13.7314 122.882 13.9463 122.307 13.8926H121V9.11086ZM122.15 13.0866C122.568 13.1404 123.038 12.9792 123.352 12.7105C123.666 12.3882 123.822 11.9584 123.822 11.4748C123.822 11.045 123.666 10.6152 123.352 10.2928C123.038 10.0242 122.568 9.86302 122.15 9.91674H121.889V13.0866H122.15Z" fill="black"/>
<path fill-rule="evenodd" clip-rule="evenodd" d="M135.948 9C134.641 9 133.543 10.0745 133.543 11.4714C133.543 12.8146 134.589 13.9429 135.948 13.9966C137.307 14.0503 138.352 12.9221 138.404 11.5252C138.352 10.1283 137.307 9 135.948 9V9Z" fill="#FD6020"/>
</svg>
