<svg width="20" height="20" viewBox="0 0 20 20" fill="none" xmlns="http://www.w3.org/2000/svg">
<path d="M7.02245 19.2305L5.3532 16.4153L2.17645 15.7305L2.48795 12.4535L0.345703 9.99979L2.48795 7.54604L2.17645 4.26904L5.3532 3.58429L7.02245 0.769043L9.99945 2.02679L12.9765 0.769043L14.6457 3.58429L17.8225 4.26904L17.511 7.54604L19.6532 9.99979L17.511 12.4535L17.8225 15.7305L14.6457 16.4153L12.9765 19.2305L9.99945 17.9728L7.02245 19.2305ZM7.44945 17.9498L9.99945 16.8883L12.561 17.9498L13.9995 15.5498L16.7495 14.9383L16.4995 12.0998L18.3495 9.99979L16.4995 7.88829L16.7495 5.04979L13.9995 4.44979L12.5495 2.04979L9.99945 3.11129L7.43795 2.04979L5.99945 4.44979L3.24945 5.04979L3.49945 7.88829L1.64945 9.99979L3.49945 12.0998L3.24945 14.9498L5.99945 15.5498L7.44945 17.9498ZM8.94945 12.8575L13.9072 7.89979L13.1995 7.18054L8.94945 11.4305L6.79945 9.29204L6.0917 9.99979L8.94945 12.8575Z" fill="#2A2D34"/>
</svg>
