<svg width="22" height="19" viewBox="0 0 22 19" fill="none" xmlns="http://www.w3.org/2000/svg">
<path d="M14.7748 9.9748L13.6498 8.8498C13.7998 8.01647 13.5625 7.2708 12.9378 6.6128C12.3125 5.95414 11.5498 5.6998 10.6498 5.8498L9.5248 4.7248C9.75814 4.6248 9.99147 4.5498 10.2248 4.4998C10.4581 4.4498 10.7165 4.4248 10.9998 4.4248C12.1331 4.4248 13.0955 4.8208 13.8868 5.6128C14.6788 6.40414 15.0748 7.36647 15.0748 8.4998C15.0748 8.78314 15.0498 9.04547 14.9998 9.2868C14.9498 9.5288 14.8748 9.75814 14.7748 9.9748ZM17.9498 13.0748L16.8498 12.0498C17.4831 11.5665 18.0458 11.0371 18.5378 10.4618C19.0291 9.88714 19.4498 9.23314 19.7998 8.4998C18.9665 6.81647 17.7705 5.47881 16.2118 4.4868C14.6538 3.49547 12.9165 2.9998 10.9998 2.9998C10.5165 2.9998 10.0415 3.03314 9.5748 3.0998C9.10814 3.16647 8.6498 3.26647 8.1998 3.3998L7.0248 2.2248C7.65814 1.9748 8.30414 1.79147 8.9628 1.6748C9.6208 1.55814 10.2998 1.4998 10.9998 1.4998C13.3498 1.4998 15.4665 2.1458 17.3498 3.4378C19.2331 4.72914 20.5998 6.41647 21.4498 8.4998C21.0831 9.3998 20.6081 10.2371 20.0248 11.0118C19.4415 11.7871 18.7498 12.4748 17.9498 13.0748ZM18.7498 18.8748L14.7248 14.8498C14.2081 15.0498 13.6375 15.2081 13.0128 15.3248C12.3875 15.4415 11.7165 15.4998 10.9998 15.4998C8.64981 15.4998 6.53714 14.8538 4.66181 13.5618C2.78714 12.2705 1.41647 10.5831 0.549805 8.4998C0.916471 7.61647 1.39147 6.79147 1.9748 6.0248C2.55814 5.25814 3.1998 4.5998 3.8998 4.0498L1.1248 1.2498L2.1748 0.174805L19.8248 17.8248L18.7498 18.8748ZM4.9498 5.0998C4.41647 5.51647 3.90414 6.0208 3.4128 6.6128C2.9208 7.20414 2.51647 7.83314 2.1998 8.4998C3.03314 10.1831 4.22881 11.5205 5.78681 12.5118C7.34547 13.5038 9.08314 13.9998 10.9998 13.9998C11.4498 13.9998 11.8998 13.9621 12.3498 13.8868C12.7998 13.8121 13.1831 13.7331 13.4998 13.6498L12.2498 12.3498C12.0665 12.4165 11.8665 12.4705 11.6498 12.5118C11.4331 12.5538 11.2165 12.5748 10.9998 12.5748C9.86647 12.5748 8.90414 12.1788 8.1128 11.3868C7.3208 10.5955 6.9248 9.63314 6.9248 8.4998C6.9248 8.2998 6.9458 8.08714 6.9878 7.8618C7.02914 7.63714 7.08314 7.43314 7.1498 7.2498L4.9498 5.0998Z" fill="black"/>
</svg>
