<svg width="22" height="15" viewBox="0 0 22 15" fill="none" xmlns="http://www.w3.org/2000/svg">
<path d="M10.9998 11.575C12.1331 11.575 13.0955 11.179 13.8868 10.387C14.6788 9.59567 15.0748 8.63333 15.0748 7.5C15.0748 6.36667 14.6788 5.40433 13.8868 4.613C13.0955 3.821 12.1331 3.425 10.9998 3.425C9.86647 3.425 8.90414 3.821 8.1128 4.613C7.3208 5.40433 6.9248 6.36667 6.9248 7.5C6.9248 8.63333 7.3208 9.59567 8.1128 10.387C8.90414 11.179 9.86647 11.575 10.9998 11.575ZM10.9998 10.2C10.2498 10.2 9.61247 9.93733 9.0878 9.412C8.56247 8.88733 8.2998 8.25 8.2998 7.5C8.2998 6.75 8.56247 6.11233 9.0878 5.587C9.61247 5.06233 10.2498 4.8 10.9998 4.8C11.7498 4.8 12.3875 5.06233 12.9128 5.587C13.4375 6.11233 13.6998 6.75 13.6998 7.5C13.6998 8.25 13.4375 8.88733 12.9128 9.412C12.3875 9.93733 11.7498 10.2 10.9998 10.2ZM10.9998 14.5C8.6998 14.5 6.60414 13.8667 4.7128 12.6C2.8208 11.3333 1.43314 9.63333 0.549805 7.5C1.43314 5.36667 2.8208 3.66667 4.7128 2.4C6.60414 1.13333 8.6998 0.5 10.9998 0.5C13.2998 0.5 15.3958 1.13333 17.2878 2.4C19.1791 3.66667 20.5665 5.36667 21.4498 7.5C20.5665 9.63333 19.1791 11.3333 17.2878 12.6C15.3958 13.8667 13.2998 14.5 10.9998 14.5ZM10.9998 13C12.8831 13 14.6125 12.504 16.1878 11.512C17.7625 10.5207 18.9665 9.18333 19.7998 7.5C18.9665 5.81667 17.7625 4.479 16.1878 3.487C14.6125 2.49567 12.8831 2 10.9998 2C9.11647 2 7.38714 2.49567 5.8118 3.487C4.23714 4.479 3.03314 5.81667 2.1998 7.5C3.03314 9.18333 4.23714 10.5207 5.8118 11.512C7.38714 12.504 9.11647 13 10.9998 13Z" fill="black"/>
</svg>
