<svg width="18" height="18" viewBox="0 0 18 18" fill="none" xmlns="http://www.w3.org/2000/svg">
<path d="M5 5.9C5.25 5.9 5.46233 5.81233 5.637 5.637C5.81233 5.46233 5.9 5.25 5.9 5C5.9 4.75 5.81233 4.53733 5.637 4.362C5.46233 4.18733 5.25 4.1 5 4.1C4.75 4.1 4.53767 4.18733 4.363 4.362C4.18767 4.53733 4.1 4.75 4.1 5C4.1 5.25 4.18767 5.46233 4.363 5.637C4.53767 5.81233 4.75 5.9 5 5.9ZM5 9.9C5.25 9.9 5.46233 9.81233 5.637 9.637C5.81233 9.46233 5.9 9.25 5.9 9C5.9 8.75 5.81233 8.53767 5.637 8.363C5.46233 8.18767 5.25 8.1 5 8.1C4.75 8.1 4.53767 8.18767 4.363 8.363C4.18767 8.53767 4.1 8.75 4.1 9C4.1 9.25 4.18767 9.46233 4.363 9.637C4.53767 9.81233 4.75 9.9 5 9.9ZM5 13.9C5.25 13.9 5.46233 13.8123 5.637 13.637C5.81233 13.4623 5.9 13.25 5.9 13C5.9 12.75 5.81233 12.5377 5.637 12.363C5.46233 12.1877 5.25 12.1 5 12.1C4.75 12.1 4.53767 12.1877 4.363 12.363C4.18767 12.5377 4.1 12.75 4.1 13C4.1 13.25 4.18767 13.4623 4.363 13.637C4.53767 13.8123 4.75 13.9 5 13.9ZM2.3 17.5C1.8 17.5 1.375 17.325 1.025 16.975C0.675 16.625 0.5 16.2 0.5 15.7V2.3C0.5 1.8 0.675 1.375 1.025 1.025C1.375 0.675 1.8 0.5 2.3 0.5H12.8L17.5 5.2V15.7C17.5 16.2 17.325 16.625 16.975 16.975C16.625 17.325 16.2 17.5 15.7 17.5H2.3ZM2.3 16H15.7C15.7833 16 15.8543 15.971 15.913 15.913C15.971 15.8543 16 15.7833 16 15.7V6H12V2H2.3C2.21667 2 2.146 2.02933 2.088 2.088C2.02933 2.146 2 2.21667 2 2.3V15.7C2 15.7833 2.02933 15.8543 2.088 15.913C2.146 15.971 2.21667 16 2.3 16Z" fill="black"/>
</svg>
