<svg width="28" height="28" viewBox="0 0 28 28" fill="none" xmlns="http://www.w3.org/2000/svg">
<g id="person">
<g id="vector">
<path d="M14 13.6501C12.8722 13.6501 11.9097 13.2464 11.1125 12.4391C10.3153 11.6325 9.91667 10.6751 9.91667 9.56673C9.91667 8.43895 10.3153 7.47645 11.1125 6.67923C11.9097 5.88201 12.8722 5.4834 14 5.4834C15.1278 5.4834 16.0903 5.88201 16.8875 6.67923C17.6847 7.47645 18.0833 8.43895 18.0833 9.56673C18.0833 10.6751 17.6847 11.6325 16.8875 12.4391C16.0903 13.2464 15.1278 13.6501 14 13.6501ZM5.25 22.5167V19.9209C5.25 19.357 5.40556 18.832 5.71667 18.3459C6.02778 17.8598 6.44583 17.4806 6.97083 17.2084C8.11806 16.6445 9.28006 16.2214 10.4568 15.9391C11.6328 15.6575 12.8139 15.5167 14 15.5167C15.1861 15.5167 16.3676 15.6575 17.5443 15.9391C18.7203 16.2214 19.8819 16.6445 21.0292 17.2084C21.5542 17.4806 21.9722 17.8598 22.2833 18.3459C22.5944 18.832 22.75 19.357 22.75 19.9209V22.5167H5.25ZM7 20.7667H21V19.9209C21 19.6876 20.9319 19.4737 20.7958 19.2792C20.6597 19.0848 20.475 18.9195 20.2417 18.7834C19.2306 18.2973 18.2051 17.9228 17.1652 17.6599C16.1245 17.3978 15.0694 17.2667 14 17.2667C12.9306 17.2667 11.8755 17.3978 10.8348 17.6599C9.79494 17.9228 8.76944 18.2973 7.75833 18.7834C7.525 18.9195 7.34028 19.0848 7.20417 19.2792C7.06806 19.4737 7 19.6876 7 19.9209V20.7667ZM14 11.9001C14.6417 11.9001 15.1912 11.6714 15.6485 11.2141C16.1051 10.7575 16.3333 10.2084 16.3333 9.56673C16.3333 8.92507 16.1051 8.37557 15.6485 7.91823C15.1912 7.46168 14.6417 7.2334 14 7.2334C13.3583 7.2334 12.8092 7.46168 12.3527 7.91823C11.8953 8.37557 11.6667 8.92507 11.6667 9.56673C11.6667 10.2084 11.8953 10.7575 12.3527 11.2141C12.8092 11.6714 13.3583 11.9001 14 11.9001Z" fill="#2A2D34"/>
</g>
</g>
</svg>
