<svg width="25" height="24" viewBox="0 0 25 24" fill="none" xmlns="http://www.w3.org/2000/svg">
<g id="search">
<g id="vector">
<path d="M20.0484 20.575L13.7484 14.3C13.2484 14.7167 12.6734 15.0417 12.0234 15.275C11.3734 15.5083 10.7068 15.625 10.0234 15.625C8.30677 15.625 6.85677 15.0333 5.67344 13.85C4.4901 12.6667 3.89844 11.2167 3.89844 9.5C3.89844 7.8 4.4901 6.354 5.67344 5.162C6.85677 3.97067 8.30677 3.375 10.0234 3.375C11.7234 3.375 13.1651 3.96667 14.3484 5.15C15.5318 6.33333 16.1234 7.78333 16.1234 9.5C16.1234 10.2167 16.0068 10.9 15.7734 11.55C15.5401 12.2 15.2234 12.7667 14.8234 13.25L21.0984 19.525L20.0484 20.575ZM10.0234 14.125C11.3068 14.125 12.3944 13.675 13.2864 12.775C14.1778 11.875 14.6234 10.7833 14.6234 9.5C14.6234 8.21667 14.1778 7.125 13.2864 6.225C12.3944 5.325 11.3068 4.875 10.0234 4.875C8.72344 4.875 7.62777 5.325 6.73644 6.225C5.84444 7.125 5.39844 8.21667 5.39844 9.5C5.39844 10.7833 5.84444 11.875 6.73644 12.775C7.62777 13.675 8.72344 14.125 10.0234 14.125Z" fill="#737373"/>
</g>
</g>
</svg>
