<svg width="28" height="28" viewBox="0 0 28 28" fill="none" xmlns="http://www.w3.org/2000/svg">
<g id="search">
<g id="vector">
<path d="M22.8085 24.0042L15.4585 16.6833C14.8751 17.1694 14.2043 17.5486 13.446 17.8208C12.6876 18.0931 11.9099 18.2292 11.1126 18.2292C9.10985 18.2292 7.41819 17.5389 6.03763 16.1583C4.65707 14.7778 3.9668 13.0861 3.9668 11.0833C3.9668 9.1 4.65707 7.413 6.03763 6.02233C7.41819 4.63244 9.10985 3.9375 11.1126 3.9375C13.096 3.9375 14.7779 4.62778 16.1585 6.00833C17.539 7.38889 18.2293 9.08056 18.2293 11.0833C18.2293 11.9194 18.0932 12.7167 17.821 13.475C17.5487 14.2333 17.1793 14.8944 16.7126 15.4583L24.0335 22.7792L22.8085 24.0042ZM11.1126 16.4792C12.6099 16.4792 13.8788 15.9542 14.9195 14.9042C15.9594 13.8542 16.4793 12.5806 16.4793 11.0833C16.4793 9.58611 15.9594 8.3125 14.9195 7.2625C13.8788 6.2125 12.6099 5.6875 11.1126 5.6875C9.59596 5.6875 8.31769 6.2125 7.2778 7.2625C6.23713 8.3125 5.7168 9.58611 5.7168 11.0833C5.7168 12.5806 6.23713 13.8542 7.2778 14.9042C8.31769 15.9542 9.59596 16.4792 11.1126 16.4792Z" fill="#2A2D34"/>
</g>
</g>
</svg>
