<svg width="28" height="28" viewBox="0 0 28 28" fill="none" xmlns="http://www.w3.org/2000/svg">
<g id="shopping_cart">
<g id="vector">
<path d="M8.34167 25.1417C7.77778 25.1417 7.29672 24.9426 6.8985 24.5443C6.4995 24.1453 6.3 23.6639 6.3 23.1C6.3 22.5361 6.4995 22.0547 6.8985 21.6557C7.29672 21.2574 7.77778 21.0583 8.34167 21.0583C8.90556 21.0583 9.38661 21.2574 9.78483 21.6557C10.1838 22.0547 10.3833 22.5361 10.3833 23.1C10.3833 23.6639 10.1838 24.1453 9.78483 24.5443C9.38661 24.9426 8.90556 25.1417 8.34167 25.1417ZM19.6583 25.1417C19.0944 25.1417 18.6134 24.9426 18.2152 24.5443C17.8162 24.1453 17.6167 23.6639 17.6167 23.1C17.6167 22.5361 17.8162 22.0547 18.2152 21.6557C18.6134 21.2574 19.0944 21.0583 19.6583 21.0583C20.2222 21.0583 20.7033 21.2574 21.1015 21.6557C21.5005 22.0547 21.7 22.5361 21.7 23.1C21.7 23.6639 21.5005 24.1453 21.1015 24.5443C20.7033 24.9426 20.2222 25.1417 19.6583 25.1417ZM7.02917 6.70833L9.975 12.8917H17.9375C17.9958 12.8917 18.0542 12.8769 18.1125 12.8473C18.1708 12.8186 18.2097 12.775 18.2292 12.7167L21.3792 7.02917C21.4181 6.95139 21.4181 6.87867 21.3792 6.811C21.3403 6.74256 21.2819 6.70833 21.2042 6.70833H7.02917ZM6.18333 4.95833H22.3708C22.9153 4.95833 23.2995 5.15744 23.5235 5.55567C23.7467 5.95467 23.7417 6.37778 23.5083 6.825L19.7458 13.5917C19.5708 13.9222 19.3278 14.1797 19.0167 14.364C18.7056 14.5491 18.3556 14.6417 17.9667 14.6417H9.45L8.10833 17.1208C8.05 17.2181 8.04533 17.3153 8.09433 17.4125C8.14256 17.5097 8.225 17.5583 8.34167 17.5583H21.7V19.3083H8.34167C7.56389 19.3083 6.98056 18.9731 6.59167 18.3027C6.20278 17.6314 6.19306 16.9653 6.5625 16.3042L8.225 13.3L3.96667 4.375H1.75V2.625H5.075L6.18333 4.95833Z" fill="#2A2D34"/>
</g>
</g>
</svg>
