<svg width="12" height="14" viewBox="0 0 12 14" fill="none" xmlns="http://www.w3.org/2000/svg">
<path d="M4.13398 1.3335V0.333496H7.86732V1.3335H4.13398ZM5.50065 8.70016H6.50065V4.96683H5.50065V8.70016ZM6.00065 13.8335C5.22287 13.8335 4.48954 13.6835 3.80065 13.3835C3.11176 13.0835 2.51176 12.6779 2.00065 12.1668C1.48954 11.6557 1.08398 11.0557 0.783985 10.3668C0.483985 9.67794 0.333984 8.94461 0.333984 8.16683C0.333984 7.38905 0.483985 6.65572 0.783985 5.96683C1.08398 5.27794 1.48954 4.67794 2.00065 4.16683C2.51176 3.65572 3.11176 3.25016 3.80065 2.95016C4.48954 2.65016 5.22287 2.50016 6.00065 2.50016C6.66732 2.50016 7.3091 2.61394 7.92598 2.8415C8.54243 3.0695 9.11732 3.39461 9.65065 3.81683L10.484 2.9835L11.184 3.6835L10.3507 4.51683C10.7729 5.05016 11.098 5.62527 11.326 6.24216C11.5535 6.85861 11.6673 7.50016 11.6673 8.16683C11.6673 8.94461 11.5173 9.67794 11.2173 10.3668C10.9173 11.0557 10.5118 11.6557 10.0007 12.1668C9.48954 12.6779 8.88954 13.0835 8.20065 13.3835C7.51176 13.6835 6.77843 13.8335 6.00065 13.8335ZM6.00065 12.8335C7.28954 12.8335 8.38954 12.3779 9.30065 11.4668C10.2118 10.5557 10.6673 9.45572 10.6673 8.16683C10.6673 6.87794 10.2118 5.77794 9.30065 4.86683C8.38954 3.95572 7.28954 3.50016 6.00065 3.50016C4.71176 3.50016 3.61176 3.95572 2.70065 4.86683C1.78954 5.77794 1.33398 6.87794 1.33398 8.16683C1.33398 9.45572 1.78954 10.5557 2.70065 11.4668C3.61176 12.3779 4.71176 12.8335 6.00065 12.8335Z" fill="black"/>
</svg>
