<svg width="22" height="16" viewBox="0 0 22 16" fill="none" xmlns="http://www.w3.org/2000/svg">
<path d="M4.85156 15.55C4.06823 15.55 3.40556 15.2793 2.86356 14.738C2.32223 14.196 2.05156 13.5333 2.05156 12.75H0.351562V2.3C0.351562 1.8 0.526562 1.375 0.876562 1.025C1.22656 0.675 1.65156 0.5 2.15156 0.5H15.7766V4.3H18.4266L21.6516 8.625V12.75H19.8516C19.8516 13.5333 19.5766 14.196 19.0266 14.738C18.4766 15.2793 17.8099 15.55 17.0266 15.55C16.2599 15.55 15.6016 15.2793 15.0516 14.738C14.5016 14.196 14.2266 13.5333 14.2266 12.75H7.65156C7.65156 13.5333 7.3809 14.196 6.83956 14.738C6.29756 15.2793 5.6349 15.55 4.85156 15.55ZM4.85156 14.05C5.21823 14.05 5.52656 13.925 5.77656 13.675C6.02656 13.425 6.15156 13.1167 6.15156 12.75C6.15156 12.3833 6.02656 12.075 5.77656 11.825C5.52656 11.575 5.21823 11.45 4.85156 11.45C4.4849 11.45 4.17656 11.575 3.92656 11.825C3.67656 12.075 3.55156 12.3833 3.55156 12.75C3.55156 13.1167 3.67656 13.425 3.92656 13.675C4.17656 13.925 4.4849 14.05 4.85156 14.05ZM1.85156 11.25H2.57656C2.79323 10.8833 3.10156 10.575 3.50156 10.325C3.90156 10.075 4.35156 9.95 4.85156 9.95C5.3349 9.95 5.7809 10.0707 6.18956 10.312C6.59756 10.554 6.9099 10.8667 7.12656 11.25H14.2766V2H2.15156C2.0849 2 2.01823 2.03333 1.95156 2.1C1.8849 2.16667 1.85156 2.23333 1.85156 2.3V11.25ZM17.0516 14.05C17.4182 14.05 17.7266 13.925 17.9766 13.675C18.2266 13.425 18.3516 13.1167 18.3516 12.75C18.3516 12.3833 18.2266 12.075 17.9766 11.825C17.7266 11.575 17.4182 11.45 17.0516 11.45C16.6849 11.45 16.3726 11.575 16.1146 11.825C15.8559 12.075 15.7266 12.3833 15.7266 12.75C15.7266 13.1167 15.8559 13.425 16.1146 13.675C16.3726 13.925 16.6849 14.05 17.0516 14.05ZM15.7766 9.25H20.2516L17.6516 5.8H15.7766V9.25Z" fill="black"/>
</svg>
